<?xml version="1.0" encoding="UTF-8"?>
<!-- Generator: Adobe Illustrator 16.0.0, SVG Export Plug-In . SVG Version: 6.00 Build 0)  -->
<!DOCTYPE svg PUBLIC "-//W3C//DTD SVG 1.0//EN" "http://www.w3.org/TR/2001/REC-SVG-20010904/DTD/svg10.dtd">
<svg version="1.0" id="Livello_1" xmlns="http://www.w3.org/2000/svg" xmlns:xlink="http://www.w3.org/1999/xlink" x="0px" y="0px" width="30px" height="30px" viewBox="0 0 30 30" enable-background="new 0 0 30 30" xml:space="preserve">
<g display="none">
	<path display="inline" fill="#FFFFFF" d="M24.5,9.5c0,0.828-0.67,1.5-1.5,1.5H7c-0.828,0-1.5-0.672-1.5-1.5l0,0   C5.5,8.672,6.172,8,7,8h16C23.83,8,24.5,8.672,24.5,9.5L24.5,9.5z"/>
	<path display="inline" fill="#FFFFFF" d="M24.5,15.5c0,0.828-0.67,1.5-1.5,1.5H7c-0.828,0-1.5-0.672-1.5-1.5l0,0   C5.5,14.672,6.172,14,7,14h16C23.83,14,24.5,14.672,24.5,15.5L24.5,15.5z"/>
	<path display="inline" fill="#FFFFFF" d="M24.5,21.5c0,0.828-0.67,1.5-1.5,1.5H7c-0.828,0-1.5-0.672-1.5-1.5l0,0   C5.5,20.672,6.172,20,7,20h16C23.83,20,24.5,20.672,24.5,21.5L24.5,21.5z"/>
</g>
<g display="none">
	<path display="inline" fill="#FFFFFF" d="M10.829,9.043c2.127-1.491,4.89-1.733,7.244-0.634c0.581,0.271,1.108,0.62,1.587,1.021   l-1.934,1.934h5.455V5.909l-1.59,1.589c-0.705-0.619-1.492-1.153-2.367-1.561c-3.238-1.51-7.034-1.178-9.962,0.872   C6.576,8.689,5,11.756,5,15h2.727C7.727,12.64,8.874,10.41,10.829,9.043z"/>
	<path display="inline" fill="#FFFFFF" d="M22.271,15c0,2.359-1.146,4.59-3.102,5.957c-2.128,1.49-4.89,1.732-7.245,0.633   c-0.58-0.27-1.107-0.619-1.587-1.021l1.934-1.934H6.818v5.454l1.589-1.588c0.705,0.618,1.491,1.153,2.366,1.562   c3.237,1.51,7.036,1.178,9.961-0.871C23.423,21.311,25,18.244,25,15H22.271z"/>
</g>
<g display="none">
	<polygon display="inline" fill="#FFFFFF" points="6.515,23.484 11.464,22.779 7.222,18.535  "/>
	
		<rect x="17.95" y="7.051" transform="matrix(0.7071 -0.7071 0.7071 0.7071 -1.2637 17.0507)" display="inline" fill="#FFFFFF" width="4" height="5.999"/>
	
		<rect x="10.927" y="10.56" transform="matrix(-0.7071 -0.7071 0.7071 -0.7071 12.4196 37.2655)" display="inline" fill="#FFFFFF" width="6.002" height="11"/>
</g>
<g>
	<path fill="#A52D11" d="M14.051,15.489c0.133,0.131,0.288,0.236,0.462,0.313c0.178,0.076,0.369,0.115,0.567,0.115   c0.403,0,0.769-0.146,1.057-0.423c0.295-0.282,0.449-0.645,0.449-1.048V6.348c0-0.405-0.157-0.767-0.452-1.046   c-0.429-0.404-1.075-0.533-1.623-0.297c-0.169,0.073-0.321,0.174-0.453,0.298c-0.135,0.13-0.244,0.285-0.322,0.466   c-0.077,0.178-0.115,0.373-0.115,0.578v8.098c0,0.206,0.039,0.4,0.116,0.583C13.813,15.202,13.918,15.357,14.051,15.489z"/>
	<path fill="#A52D11" d="M24.451,13.144c-0.176-0.658-0.403-1.262-0.673-1.795c-0.267-0.526-0.563-1-0.882-1.41   c-0.305-0.389-0.59-0.733-0.809-0.969l-0.104-0.143C21.718,8.55,21.389,8.397,21,8.368l-0.107-0.004   c-0.36,0-0.696,0.139-0.959,0.394c-0.146,0.133-0.264,0.287-0.348,0.456c-0.087,0.174-0.137,0.36-0.15,0.55   c-0.012,0.181,0.012,0.367,0.068,0.551c0.06,0.196,0.165,0.373,0.308,0.527l0.655,0.746c0.206,0.243,0.402,0.543,0.589,0.889   c0.181,0.339,0.337,0.75,0.466,1.218c0.124,0.462,0.187,1.014,0.187,1.643c0,0.636-0.081,1.261-0.24,1.854   c-0.159,0.595-0.387,1.156-0.676,1.668c-0.288,0.511-0.642,0.985-1.05,1.412c-0.404,0.423-0.859,0.788-1.353,1.087   c-0.492,0.299-1.03,0.535-1.601,0.699c-1.137,0.33-2.42,0.33-3.554,0c-0.572-0.165-1.113-0.4-1.609-0.7   c-0.496-0.299-0.952-0.664-1.356-1.086c-0.406-0.427-0.761-0.901-1.047-1.412c-0.292-0.512-0.519-1.073-0.678-1.668   c-0.16-0.594-0.24-1.219-0.24-1.854c0-0.621,0.074-1.168,0.221-1.625c0.152-0.471,0.334-0.886,0.545-1.234   c0.212-0.353,0.438-0.654,0.668-0.894l0.726-0.752c0.144-0.145,0.251-0.315,0.319-0.504c0.066-0.187,0.091-0.381,0.073-0.582   c-0.019-0.187-0.072-0.366-0.153-0.528c-0.085-0.172-0.202-0.327-0.347-0.46c-0.151-0.139-0.324-0.243-0.512-0.308   C9.68,8.396,9.516,8.367,9.305,8.367c-0.002,0-0.004,0-0.007,0c-0.193,0.006-0.38,0.05-0.559,0.135   C8.572,8.58,8.42,8.687,8.287,8.82L8.176,8.985C7.933,9.259,7.662,9.571,7.358,9.92c-0.345,0.401-0.674,0.874-0.981,1.404   c-0.305,0.531-0.566,1.137-0.774,1.798c-0.212,0.674-0.321,1.444-0.321,2.283c0,0.885,0.119,1.753,0.35,2.583   c0.234,0.824,0.564,1.604,0.983,2.314c0.418,0.71,0.929,1.37,1.518,1.962c0.593,0.595,1.254,1.107,1.969,1.521   c0.714,0.416,1.496,0.745,2.323,0.976c0.829,0.233,1.701,0.351,2.587,0.351c0.888,0,1.756-0.117,2.584-0.351   c0.82-0.23,1.6-0.56,2.315-0.975c0.719-0.418,1.379-0.929,1.969-1.521c0.588-0.592,1.099-1.253,1.517-1.962   c0.422-0.715,0.75-1.495,0.979-2.317c0.229-0.827,0.343-1.694,0.343-2.581C24.718,14.575,24.629,13.814,24.451,13.144z"/>
</g>
</svg>